<svg width="229" height="18" viewBox="0 0 229 18" fill="none" xmlns="http://www.w3.org/2000/svg">
<path d="M15 9.00586V3H17.9956V9.00586H15ZM0 18V0.00439453H15V3H5.99854V9.00586H15V12.0015H5.99854V18H0ZM21.0059 18V15.0044H27.0044V3H21.0059V0.00439453H39.0015V3H33.0029V15.0044H39.0015V18H21.0059ZM57.0117 18V15.0044H60.0073V18H57.0117ZM54.0088 15.0044V12.0015H57.0117V15.0044H54.0088ZM54.0088 6.00293V3H57.0117V6.00293H54.0088ZM42.0117 18V15.0044H45.0073V12.0015H48.0103V6.00293H45.0073V3H42.0117V0.00439453H48.0103V3H51.0059V6.00293H54.0088V12.0015H51.0059V15.0044H48.0103V18H42.0117ZM57.0117 3V0.00439453H60.0073V3H57.0117ZM63.0176 18V0.00439453H81.0132V3H69.0161V6.00293H78.0176V9.00586H69.0161V15.0044H81.0132V18H63.0176ZM84.0234 18V0.00439453H90.022V15.0044H102.019V18H84.0234ZM114.023 6.00293V3H117.026V6.00293H114.023ZM105.029 18V0.00439453H114.023V3H111.028V18H105.029ZM120.029 18V3H117.026V0.00439453H123.025V18H120.029ZM126.035 18V3H129.031V0.00439453H141.035V3H132.034V6.00293H141.035V3H144.031V18H141.035V9.00586H132.034V18H126.035ZM150.037 18V15.0044H147.041V3H150.037V0.00439453H165.037V3H153.04V15.0044H162.041V12.0015H159.038V9.00586H165.037V18H150.037ZM177.041 12.0015V6.00293H180.044V12.0015H177.041ZM168.047 18V0.00439453H177.041V6.00293H174.045V18H168.047ZM180.044 18V12.0015H183.047V0.00439453H186.042V18H180.044ZM189.053 18V0.00439453H207.048V3H195.051V6.00293H204.053V9.00586H195.051V15.0044H207.048V18H189.053ZM216.057 18V3H210.059V0.00439453H228.054V3H222.056V18H216.057Z" fill="white"/>
</svg>
