<svg width="48" height="48" viewBox="0 0 48 48" fill="none" xmlns="http://www.w3.org/2000/svg">
<path d="M23.93 0.666748C11.05 0.666748 0.59668 11.1201 0.59668 24.0001C0.59668 36.8801 11.05 47.3334 23.93 47.3334C36.81 47.3334 47.2633 36.8801 47.2633 24.0001C47.2633 11.1201 36.8333 0.666748 23.93 0.666748ZM30.93 29.2034L24.1633 33.1001C23.3233 33.5901 22.39 33.8234 21.48 33.8234C20.5467 33.8234 19.6367 33.5901 18.7967 33.1001C17.1167 32.1201 16.1133 30.3934 16.1133 28.4334V20.6167C16.1133 18.6801 17.1167 16.9301 18.7967 15.9501C20.4767 14.9701 22.4833 14.9701 24.1867 15.9501L30.9533 19.8467C32.6333 20.8267 33.6367 22.5534 33.6367 24.5134C33.6367 26.4734 32.6333 28.2234 30.93 29.2034Z" fill="white"/>
</svg>
